<?xml version="1.0" encoding="UTF-8" standalone="no"?>
<!DOCTYPE svg PUBLIC "-//W3C//DTD SVG 1.1//EN" "http://www.w3.org/Graphics/SVG/1.1/DTD/svg11.dtd">
<svg width="100%" height="100%" viewBox="0 0 640 400" version="1.1" xmlns="http://www.w3.org/2000/svg" xmlns:xlink="http://www.w3.org/1999/xlink" xml:space="preserve" xmlns:serif="http://www.serif.com/" style="fill-rule:evenodd;clip-rule:evenodd;stroke-linejoin:round;">
    <rect x="0" y="0" width="640" height="400" style="fill:white;"/>
    <rect x="50.273" y="11.811" width="577.917" height="345.839" style="fill:white;"/>
    <g transform="matrix(1,0,0,1,65.3015,-146.075)">
        <text x="334.349px" y="269.976px" style="font-family:'ArialMT', 'Arial', sans-serif;font-size:15px;">zero prime neighbors</text>
    </g>
    <g transform="matrix(1,0,0,1,-119.336,-41.8215)">
        <text x="346.012px" y="269.976px" style="font-family:'Arial-BoldMT', 'Arial', sans-serif;font-weight:700;font-size:15px;">average over all</text>
        <text x="463.588px" y="269.976px" style="font-family:'Arial-BoldItalicMT', 'Arial', sans-serif;font-weight:700;font-style:italic;font-size:15px;">n</text>
        <text x="476.918px" y="269.976px" style="font-family:'Arial-BoldMT', 'Arial', sans-serif;font-weight:700;font-size:15px;">divisible by 6</text>
    </g>
    <g transform="matrix(1,0,0,1,-271.16,-225.061)">
        <text x="334.349px" y="269.976px" style="font-family:'ArialMT', 'Arial', sans-serif;font-size:15px;">two prime neighbors</text>
    </g>
    <path d="M50.273,357.65L50.273,11.811" style="fill:none;fill-rule:nonzero;stroke:black;stroke-opacity:0.1;stroke-width:0.5px;"/>
    <path d="M165.625,357.65L165.625,11.811" style="fill:none;fill-rule:nonzero;stroke:black;stroke-opacity:0.1;stroke-width:0.5px;"/>
    <path d="M280.978,357.65L280.978,11.811" style="fill:none;fill-rule:nonzero;stroke:black;stroke-opacity:0.1;stroke-width:0.5px;"/>
    <path d="M396.33,357.65L396.33,11.811" style="fill:none;fill-rule:nonzero;stroke:black;stroke-opacity:0.1;stroke-width:0.5px;"/>
    <path d="M511.683,357.65L511.683,11.811" style="fill:none;fill-rule:nonzero;stroke:black;stroke-opacity:0.1;stroke-width:0.5px;"/>
    <path d="M627.035,357.65L627.035,11.811" style="fill:none;fill-rule:nonzero;stroke:black;stroke-opacity:0.1;stroke-width:0.5px;"/>
    <path d="M50.273,357.65L628.19,357.65" style="fill:none;fill-rule:nonzero;stroke:black;stroke-width:1px;"/>
    <path d="M50.273,357.65L50.273,352.925" style="fill:none;fill-rule:nonzero;stroke:black;stroke-width:1px;"/>
    <path d="M165.625,357.65L165.625,352.925" style="fill:none;fill-rule:nonzero;stroke:black;stroke-width:1px;"/>
    <path d="M280.978,357.65L280.978,352.925" style="fill:none;fill-rule:nonzero;stroke:black;stroke-width:1px;"/>
    <path d="M396.33,357.65L396.33,352.925" style="fill:none;fill-rule:nonzero;stroke:black;stroke-width:1px;"/>
    <path d="M511.683,357.65L511.683,352.925" style="fill:none;fill-rule:nonzero;stroke:black;stroke-width:1px;"/>
    <path d="M627.035,357.65L627.035,352.925" style="fill:none;fill-rule:nonzero;stroke:black;stroke-width:1px;"/>
    <g transform="matrix(1,0,0,1,50.2728,373.433)">
        <text x="-3.337px" y="0px" style="font-family:'ArialMT', 'Arial', sans-serif;font-size:12px;">0</text>
    </g>
    <g transform="matrix(1,0,0,1,165.625,373.433)">
        <text x="-6.674px" y="0px" style="font-family:'ArialMT', 'Arial', sans-serif;font-size:12px;">20</text>
    </g>
    <g transform="matrix(1,0,0,1,280.978,373.433)">
        <text x="-6.674px" y="0px" style="font-family:'ArialMT', 'Arial', sans-serif;font-size:12px;">40</text>
    </g>
    <g transform="matrix(1,0,0,1,396.33,373.433)">
        <text x="-6.674px" y="0px" style="font-family:'ArialMT', 'Arial', sans-serif;font-size:12px;">60</text>
    </g>
    <g transform="matrix(1,0,0,1,511.683,373.433)">
        <text x="-6.674px" y="0px" style="font-family:'ArialMT', 'Arial', sans-serif;font-size:12px;">80</text>
    </g>
    <g transform="matrix(1,0,0,1,627.035,373.433)">
        <text x="-10.011px" y="0px" style="font-family:'ArialMT', 'Arial', sans-serif;font-size:12px;">100</text>
    </g>
    <g transform="matrix(1,0,0,1,339.23,394.715)">
        <g>
            <text x="-39.88px" y="0px" style="font-family:'Arial-ItalicMT', 'Arial', sans-serif;font-style:italic;font-size:16.5px;">n</text>
            <text x="-26.12px" y="0px" style="font-family:'ArialMT', 'Arial', sans-serif;font-size:16.5px;">(millions)</text>
        </g>
    </g>
    <path d="M50.273,357.65L628.19,357.65" style="fill:none;fill-rule:nonzero;stroke:black;stroke-opacity:0.1;stroke-width:0.5px;"/>
    <path d="M50.273,299.338L628.19,299.338" style="fill:none;fill-rule:nonzero;stroke:black;stroke-opacity:0.1;stroke-width:0.5px;"/>
    <path d="M50.273,241.025L628.19,241.025" style="fill:none;fill-rule:nonzero;stroke:black;stroke-opacity:0.1;stroke-width:0.5px;"/>
    <path d="M50.273,182.713L628.19,182.713" style="fill:none;fill-rule:nonzero;stroke:black;stroke-opacity:0.1;stroke-width:0.5px;"/>
    <path d="M50.273,124.4L628.19,124.4" style="fill:none;fill-rule:nonzero;stroke:black;stroke-opacity:0.1;stroke-width:0.5px;"/>
    <path d="M50.273,66.088L628.19,66.088" style="fill:none;fill-rule:nonzero;stroke:black;stroke-opacity:0.1;stroke-width:0.5px;"/>
    <path d="M50.273,357.65L50.273,11.811" style="fill:none;fill-rule:nonzero;stroke:black;stroke-width:1px;"/>
    <path d="M50.273,357.65L54.997,357.65" style="fill:none;fill-rule:nonzero;stroke:black;stroke-width:1px;"/>
    <path d="M50.273,299.338L54.997,299.338" style="fill:none;fill-rule:nonzero;stroke:black;stroke-width:1px;"/>
    <path d="M50.273,241.025L54.997,241.025" style="fill:none;fill-rule:nonzero;stroke:black;stroke-width:1px;"/>
    <path d="M50.273,182.713L54.997,182.713" style="fill:none;fill-rule:nonzero;stroke:black;stroke-width:1px;"/>
    <path d="M50.273,124.4L54.997,124.4" style="fill:none;fill-rule:nonzero;stroke:black;stroke-width:1px;"/>
    <path d="M50.273,66.088L54.997,66.088" style="fill:none;fill-rule:nonzero;stroke:black;stroke-width:1px;"/>
    <g transform="matrix(1,0,0,1,37.3275,362.025)">
        <text x="-3.337px" y="0px" style="font-family:'ArialMT', 'Arial', sans-serif;font-size:12px;">0</text>
    </g>
    <g transform="matrix(1,0,0,1,33.9823,303.712)">
        <text x="-6.674px" y="0px" style="font-family:'ArialMT', 'Arial', sans-serif;font-size:12px;">10</text>
    </g>
    <g transform="matrix(1,0,0,1,33.9823,245.4)">
        <text x="-6.674px" y="0px" style="font-family:'ArialMT', 'Arial', sans-serif;font-size:12px;">20</text>
    </g>
    <g transform="matrix(1,0,0,1,33.9823,187.088)">
        <text x="-6.674px" y="0px" style="font-family:'ArialMT', 'Arial', sans-serif;font-size:12px;">30</text>
    </g>
    <g transform="matrix(1,0,0,1,33.9823,128.775)">
        <text x="-6.674px" y="0px" style="font-family:'ArialMT', 'Arial', sans-serif;font-size:12px;">40</text>
    </g>
    <g transform="matrix(1,0,0,1,33.9823,70.4633)">
        <text x="-6.674px" y="0px" style="font-family:'ArialMT', 'Arial', sans-serif;font-size:12px;">50</text>
    </g>
    <g transform="matrix(-3.82857e-16,-1,1,-3.82857e-16,14.8011,184.73)">
        <g>
            <text x="-136.669px" y="0px" style="font-family:'Arial-ItalicMT', 'Arial', sans-serif;font-style:italic;font-size:16.5px;">d(n)</text>
            <text x="-102.742px" y="0px" style="font-family:'ArialMT', 'Arial', sans-serif;font-size:16.5px;">averaged over blocks of 200,000</text>
        </g>
    </g>
    <path d="M51.426,203.219L52.58,184.887L53.733,176.641L54.887,172.46L56.041,168.339L57.194,165.569L58.347,162.942L59.501,161.774L60.655,159.038L61.808,157.063L62.962,156.09L64.115,154.665L65.269,153.155L66.422,152.572L67.576,151.981L68.729,150.906L69.883,149.428L71.036,148.675L72.19,146.762L73.343,148.655L74.497,145.478L75.65,146.707L76.804,146.269L77.958,145.048L79.111,143.684L80.265,143.273L81.418,143.116L82.572,142.154L83.725,142.763L84.879,142.004L86.032,140.362L87.186,139.986L88.339,139.928L89.493,139.404L90.646,139.232L91.8,138.3L92.953,138.832L94.107,137.268L95.26,137.342L96.414,136.525L97.567,136.794L98.721,135.926L99.875,136.706L101.028,136.658L102.182,135.273L103.335,134.435L104.489,134.535L105.642,134.78L106.796,134.394L107.949,133.624L109.103,133.496L110.256,134.116L111.41,132.979L112.563,132.802L113.717,133.475L114.87,131.591L116.024,131.708L117.177,131.572L118.331,131.601L119.484,130.318L120.638,131.015L121.791,129.429L122.945,130.495L124.099,131.039L125.252,129.059L126.406,129.04L127.559,129.905L128.713,129.947L129.866,128.991L131.019,127.946L132.173,128.763L133.327,128.03L134.48,128.482L135.634,127.525L136.787,126.962L137.941,128.135L139.094,127.704L140.248,127.39L141.401,126.606L142.555,127.57L143.708,126.329L144.862,125.501L146.016,126.587L147.169,126.88L148.323,126.988L149.476,126.799L150.63,127.104L151.783,124.265L152.937,125.279L154.09,126.396L155.244,125.296L156.397,125.073L157.551,125.17L158.704,124.493L159.858,124.427L161.011,124.433L162.165,124.204L163.318,124.478L164.472,123.956L165.625,124.013L166.779,122.677L167.932,122.871L169.086,122.863L170.24,122.096L171.393,123.726L172.547,123.278L173.7,122.081L174.854,122.379L176.007,122.77L177.161,122.419L178.314,121.83L179.468,121.592L180.621,121.159L181.775,121.276L182.928,122.439L184.082,121.293L185.235,122.341L186.389,120.95L187.542,120.059L188.696,120.409L189.849,121.997L191.003,121.199L192.157,120.553L193.31,120.147L194.464,120.877L195.617,120.383L196.771,119.074L197.924,121.626L199.077,119.313L200.231,120.023L201.385,119.936L202.538,119.911L203.692,119.159L204.845,119.928L205.999,119.55L207.152,120.208L208.306,119.256L209.459,118.954L210.613,118.704L211.766,119.034L212.92,119.19L214.074,117.656L215.227,118.802L216.381,118.436L217.534,119.391L218.688,118.196L219.841,118.867L220.994,118.257L222.148,117.917L223.302,118.014L224.455,117.456L225.609,116.948L226.762,118.098L227.916,118.269L229.069,116.524L230.223,117.245L231.376,116.683L232.53,117.282L233.683,116.862L234.837,116.83L235.99,116.671L237.144,115.87L238.298,117.166L239.451,116.447L240.605,116.275L241.758,116.993L242.911,116.979L244.065,115.918L245.219,116.592L246.372,115.687L247.526,115.661L248.679,115.909L249.833,117.234L250.985,115.698L252.14,115.159L253.292,114.912L254.448,115.615L255.6,113.53L256.755,115.729L257.908,114.233L259.06,115.255L260.215,115.732L261.368,115.218L262.523,115.272L263.675,114.131L264.828,114.617L265.983,115.286L267.135,114.259L268.29,114.419L269.443,114.297L270.595,114.847L271.75,114.534L272.902,113.761L274.058,113.921L275.21,114.225L276.365,113.842L277.518,113.511L278.67,114.42L279.825,114.217L280.978,113.571L282.133,112.838L283.285,113.742L284.438,114.142L285.592,114.929L286.745,113.446L287.9,113.985L289.053,112.209L290.205,114.296L291.36,113.698L292.513,112.626L293.668,113.804L294.82,112.116L295.973,112.638L297.128,113.425L298.28,111.784L299.435,114.047L300.588,111.064L301.743,112.21L302.895,113.983L304.048,112.793L305.203,112.169L306.355,110.5L307.51,112.719L308.663,111.005L309.815,112.513L310.97,111.64L312.123,112.228L313.277,111.376L314.43,112.057L315.583,111.118L316.738,111.122L317.89,112.239L319.045,111.328L320.198,110.642L321.35,110.986L322.505,111.986L323.658,111.086L324.813,111.36L325.965,110.313L327.12,111.066L328.273,111.614L329.425,109.453L330.58,110.119L331.733,110.196L332.888,109.879L334.04,109.51L335.193,110.779L336.348,109.901L337.5,110.457L338.655,110.536L339.808,110.97L340.96,111.568L342.115,110.47L343.268,109.626L344.423,109.021L345.575,109.848L346.73,110.648L347.883,111.018L349.035,110.14L350.19,110.59L351.342,108.701L352.498,111.144L353.65,111.327L354.803,109.227L355.958,110.564L357.11,109.013L358.265,108.898L359.418,110.262L360.57,108.165L361.725,108.641L362.878,109.869L364.033,109.031L365.185,108.722L366.337,109.404L367.493,109.641L368.645,109.985L369.8,109.069L370.953,107.165L372.108,108.681L373.26,109.016L374.413,108.498L375.568,108.786L376.72,107.676L377.875,107.406L379.027,108.124L380.18,107.697L381.335,107.908L382.488,109.32L383.643,107.486L384.795,108.431L385.948,108.511L387.103,108.226L388.255,108.2L389.41,108.74L390.563,108.184L391.717,107.298L392.87,107.756L394.023,108.3L395.178,109.03L396.33,108.417L397.485,107.706L398.638,107.476L399.79,107.973L400.945,107.801L402.098,107.677L403.253,106.897L404.405,106.969L405.558,108.653L406.712,105.748L407.865,107.432L409.02,106.921L410.173,107.255L411.325,107.128L412.48,106.847L413.633,107.331L414.788,107.061L415.94,106.895L417.095,107.465L418.248,107.484L419.4,106.264L420.555,106.135L421.708,107.879L422.863,107.359L424.015,107.533L425.168,106.418L426.323,106.818L427.475,104.618L428.63,106.244L429.783,106.984L430.935,107.491L432.09,104.821L433.243,107.381L434.397,106.114L435.55,106.326L436.705,105.663L437.858,105.786L439.01,106.385L440.165,104.423L441.318,105.692L442.473,105.673L443.625,104.894L444.777,106.648L445.933,105.262L447.085,104.881L448.24,105.251L449.393,106.582L450.545,104.821L451.7,104.028L452.853,105.466L454.008,104.261L455.16,106.381L456.313,104.043L457.467,106.063L458.62,104.897L459.775,105.513L460.928,104.121L462.083,105.081L463.235,104.661L464.388,105.582L465.543,104.697L466.695,105.284L467.85,105.662L469.003,105.28L470.155,104.265L471.31,105.156L472.462,105.094L473.618,104.894L474.77,105.587L475.923,105.014L477.078,104.672L478.23,105.656L479.385,102.997L480.538,104.227L481.693,104.757L482.845,105.282L483.998,104.066L485.152,104.579L486.305,104.668L487.46,103.318L488.613,104.549L489.765,104.285L490.92,103.914L492.073,103.372L493.228,105.956L494.38,105.749L495.533,103.506L496.688,103.858L497.84,103.418L498.995,105.031L500.147,105.747L501.3,105.141L502.455,106.555L503.608,102.373L504.763,103.178L505.915,104.36L507.07,103.619L508.223,103.934L509.375,103.039L510.53,104.312L511.683,102.593L512.837,102.811L513.99,103.884L515.143,104.211L516.298,102.726L517.45,103.784L518.605,103.066L519.758,104.835L520.91,103.148L522.065,103.889L523.217,102.974L524.372,103.361L525.525,103.201L526.678,102.756L527.833,103.46L528.985,103.998L530.14,104.898L531.293,102.927L532.448,101.353L533.6,103.94L534.753,102.559L535.908,102.212L537.06,103.02L538.215,102.781L539.367,103.725L540.52,101.28L541.675,102.743L542.828,103.572L543.983,102.811L545.135,102.517L546.288,101.297L547.443,103.044L548.595,102.742L549.75,102.618L550.903,101.992L552.058,102.692L553.21,100.656L554.363,102.72L555.518,101.818L556.67,101.515L557.825,103.071L558.978,102.171L560.13,101.807L561.285,102.603L562.438,101.124L563.593,102.509L564.745,102.027L565.898,101.373L567.053,102.554L568.205,102.784L569.36,102.278L570.513,101.746L571.665,100.092L572.82,101.049L573.973,101.407L575.128,102.157L576.28,101.665L577.435,102.545L578.588,102.068L579.74,100.35L580.895,101.687L582.048,101.305L583.203,100.876L584.355,101.578L585.508,102.082L586.663,100.481L587.815,102.022L588.97,101.339L590.122,100.451L591.275,101.748L592.43,101.786L593.583,101.155L594.738,100.976L595.89,100.517L597.045,100.49L598.198,102.165L599.35,101.217L600.505,100.524L601.658,101.429L602.813,101.448L603.965,101.682L605.117,99.928L606.273,101.611L607.425,100.386L608.58,101.857L609.733,100.82L610.885,102.059L612.04,100.269L613.193,99.768L614.348,101.113L615.5,99.269L616.653,100.934L617.808,100.237L618.96,99.775L620.115,100.419L621.268,100.742L622.423,99.473L623.575,99.534L624.728,100.443L625.883,100.036L627.035,100.817" style="fill:none;fill-rule:nonzero;stroke:rgb(229,102,51);stroke-width:1.5px;"/>
    <path d="M51.426,192.272L52.58,168.512L53.733,161.503L54.887,154.669L56.041,151.443L57.194,148.06L58.347,145.031L59.501,141.039L60.655,141.297L61.808,140.409L62.962,138.758L64.115,137.723L65.269,135.831L66.422,133.086L67.576,130.915L68.729,130.172L69.883,130.524L71.036,129.786L72.19,131.687L73.343,124.843L74.497,128.762L75.65,124.258L76.804,123.092L77.958,123.156L79.111,124.9L80.265,124.054L81.418,122.377L82.572,121.863L83.725,119.636L84.879,119.395L86.032,121.421L87.186,120.781L88.339,119.253L89.493,118.588L90.646,118.773L91.8,118.696L92.953,115.015L94.107,118.759L95.26,116.439L96.414,117.636L97.567,116.283L98.721,116.607L99.875,112.768L101.028,112.676L102.182,114.771L103.335,115.374L104.489,114.036L105.642,111.812L106.796,112.216L107.949,112.475L109.103,112.605L110.256,110.097L111.41,112.144L112.563,110.925L113.717,109.945L114.87,111.539L116.024,110.395L117.177,110.688L118.331,109.791L119.484,112.365L120.638,110.377L121.791,109.976L122.945,108.424L124.099,106.809L125.252,110.934L126.406,109.62L127.559,106.98L128.713,105.83L129.866,107.774L131.019,108.431L132.173,107.751L133.327,107.613L134.48,104.774L135.634,107.643L136.787,108.629L137.941,104.634L139.094,104.574L140.248,106.993L141.401,106.382L142.555,103.804L143.708,105.674L144.862,106.259L146.016,103.315L147.169,102.683L148.323,101.527L149.476,101.876L150.63,102.159L151.783,107.63L152.937,102.665L154.09,101.097L155.244,102.051L156.397,102.583L157.551,101.867L158.704,101.722L159.858,101.795L161.011,100.992L162.165,101.289L163.318,99.287L164.472,100.841L165.625,100.797L166.779,103.307L167.932,101.562L169.086,102.962L170.24,102.193L171.393,98.915L172.547,99.397L173.7,101.326L174.854,99.823L176.007,98.299L177.161,98.897L178.314,100.218L179.468,100.293L180.621,102.388L181.775,100.603L182.928,97.512L184.082,99.449L185.235,97.798L186.389,100.38L187.542,101.35L188.696,100.721L189.849,96.167L191.003,97.136L192.157,97.037L193.31,98.92L194.464,96.406L195.617,98.115L196.771,98.525L197.924,94.852L199.077,99.318L200.231,96.398L201.385,96.596L202.538,96.623L203.692,98.245L204.845,95.905L205.999,95.688L207.152,94.18L208.306,95.373L209.459,96.971L210.613,96.357L211.766,95.327L212.92,95.247L214.074,98.194L215.227,94.315L216.381,95.459L217.534,92.521L218.688,96.248L219.841,92.181L220.994,93.756L222.148,95.938L223.302,94.468L224.455,94.913L225.609,96.431L226.762,93.777L227.916,93.775L229.069,94.794L230.223,93.705L231.376,95.52L232.53,93.231L233.683,94.57L234.837,94.148L235.99,93.605L237.144,95.128L238.298,92.791L239.451,93.179L240.605,94.135L241.758,90.672L242.911,90.969L244.065,92.557L245.219,92.108L246.372,92.873L247.526,92.112L248.679,91.374L249.833,88.704L250.985,92.394L252.14,93.388L253.292,91.667L254.448,92.157L255.6,95.685L256.755,90.447L257.908,93.183L259.06,91.962L260.215,90.38L261.368,91.838L262.523,89.952L263.675,92.45L264.828,91.664L265.983,89.966L267.135,91.815L268.29,90.738L269.443,90.421L270.595,90.277L271.75,90.682L272.902,91.904L274.058,91.399L275.21,90.883L276.365,90.674L277.518,91.912L278.67,88.286L279.825,90.898L280.978,89.815L282.133,92.176L283.285,90.86L284.438,89.085L285.592,86.551L286.745,88.647L287.9,88.435L289.053,90.334L290.205,85.54L291.36,87.02L292.513,89.984L293.668,87.146L294.82,91.829L295.973,89.434L297.128,86.402L298.28,90.641L299.435,85.024L300.588,92.152L301.743,90.098L302.895,84.757L304.048,88.29L305.203,88.34L306.355,92.245L307.51,86.842L308.663,91.705L309.815,87.569L310.97,89.912L312.123,88.188L313.277,90.606L314.43,88.263L315.583,88.087L316.738,89.123L317.89,86.178L319.045,86.688L320.198,89.334L321.35,87.93L322.505,86.359L323.658,88.475L324.813,85.818L325.965,88.981L327.12,87.21L328.273,85.786L329.425,91.632L330.58,88.353L331.733,87.858L332.888,87.949L334.04,88.68L335.193,86.693L336.348,88.563L337.5,87.372L338.655,85.974L339.808,83.848L340.96,82.167L342.115,84.379L343.268,88.478L344.423,88.543L345.575,85.537L346.73,86.081L347.883,84.95L349.035,83.929L350.19,83.505L351.342,87.566L352.498,81.669L353.65,82.326L354.803,87.684L355.958,84.228L357.11,87.55L358.265,87.38L359.418,82.741L360.57,88.896L361.725,86.846L362.878,83.533L364.033,84.996L365.185,86.688L366.337,83.196L367.493,82.849L368.645,83.157L369.8,84.926L370.953,88.66L372.108,84.871L373.26,84.434L374.413,85.864L375.568,83.996L376.72,86.768L377.875,87.778L379.027,84.538L380.18,86.377L381.335,85.742L382.488,82.045L383.643,84.817L384.795,84.546L385.948,81.388L387.103,84.188L388.255,83.199L389.41,81.548L390.563,83.271L391.717,84.77L392.87,82.024L394.023,83.586L395.178,81.419L396.33,81.753L397.485,82.254L398.638,83.558L399.79,83.244L400.945,84.372L402.098,84.722L403.253,85.146L404.405,83.638L405.558,80.624L406.712,86.055L407.865,82.564L409.02,84.834L410.173,83.674L411.325,82.521L412.48,83.834L413.633,81.307L414.788,82.936L415.94,82.201L417.095,81.042L418.248,81.233L419.4,85.38L420.555,84.434L421.708,79.693L422.863,81.973L424.015,78.99L425.168,81.245L426.323,81.51L427.475,86.482L428.63,83.24L429.783,82.362L430.935,79.078L432.09,86.299L433.243,79.165L434.397,84.234L435.55,81.656L436.705,82.595L437.858,81.591L439.01,81.019L440.165,85.957L441.318,82.427L442.473,82.266L443.625,82.839L444.777,80.034L445.933,82.888L447.085,83.434L448.24,83.087L449.393,78.232L450.545,83.208L451.7,84.437L452.853,81.01L454.008,83.608L455.16,79.137L456.313,83.635L457.467,79.399L458.62,81.986L459.775,80.153L460.928,83.513L462.083,81.67L463.235,83.076L464.388,80.204L465.543,81.761L466.695,79.313L467.85,79.153L469.003,79.423L470.155,82.376L471.31,80.052L472.462,80.886L473.618,79.603L474.77,78.335L475.923,78.468L477.078,82.023L478.23,77.25L479.385,83.725L480.538,81.282L481.693,80.521L482.845,78.179L483.998,80.75L485.152,80.735L486.305,79.171L487.46,85.054L488.613,79.844L489.765,79.184L490.92,79.632L492.073,81.524L493.228,75.985L494.38,76.544L495.533,80.276L496.688,80.638L497.84,80.194L498.995,75.881L500.147,73.973L501.3,76.272L502.455,72.583L503.608,82.821L504.763,79.537L505.915,78.889L507.07,79.396L508.223,77.943L509.375,80.927L510.53,76.818L511.683,81.324L512.837,80.175L513.99,76.935L515.143,77.264L516.298,79.831L517.45,77.784L518.605,78.873L519.758,74.936L520.91,79.609L522.065,75.905L523.217,79.767L524.372,77.545L525.525,78.353L526.678,79.218L527.833,76.733L528.985,74.887L530.14,72.762L531.293,79.247L532.448,81.892L533.6,75.004L534.753,78.866L535.908,78.532L537.06,77.458L538.215,78.812L539.367,76.049L540.52,80.49L541.675,78.425L542.828,73.623L543.983,75.711L545.135,78.271L546.288,81.656L547.443,77.748L548.595,77.68L549.75,75.445L550.903,77.286L552.058,75.745L553.21,80.749L554.363,75.694L555.518,77.596L556.67,79.446L557.825,76.187L558.978,76.76L560.13,78.133L561.285,74.996L562.438,80.202L563.593,76.019L564.745,77.695L565.898,77.379L567.053,75.92L568.205,75.723L569.36,76.026L570.513,77.479L571.665,80.358L572.82,77.826L573.973,77.084L575.128,76.861L576.28,76.994L577.435,73.728L578.588,74.902L579.74,80.255L580.895,76.287L582.048,77.888L583.203,76.765L584.355,77.213L585.508,74.857L586.663,77.582L587.815,75.482L588.97,77.851L590.122,78.579L591.275,75.315L592.43,74.95L593.583,76.974L594.738,77.633L595.89,77.828L597.045,77.504L598.198,74.169L599.35,75.081L600.505,76.134L601.658,74.362L602.813,75.3L603.965,73.773L605.117,78.556L606.273,75.794L607.425,78.259L608.58,73.111L609.733,75.812L610.885,70.621L612.04,77.049L613.193,78.313L614.348,74.222L615.5,78.435L616.653,75.763L617.808,76.53L618.96,78.828L620.115,74.623L621.268,74.495L622.423,78.152L623.575,77.059L624.728,75.621L625.883,75.41L627.035,74.941" style="fill:none;fill-rule:nonzero;stroke:rgb(33,191,81);stroke-width:1.5px;"/>
    <path d="M51.426,176.598L52.58,146.257L53.733,134.276L54.887,129.342L56.041,124.01L57.194,121.709L58.347,122.797L59.501,120.46L60.655,113.664L61.808,109.632L62.962,100.701L64.115,96.525L65.269,104.55L66.422,108.11L67.576,108.49L68.729,106.776L69.883,102.899L71.036,96.73L72.19,91.957L73.343,96.62L74.497,99.104L75.65,94.339L76.804,96.172L77.958,98.115L79.111,90.477L80.265,84.966L81.418,88.769L82.572,95.177L83.725,87.613L84.879,89.627L86.032,88.127L87.186,86.006L88.339,87.621L89.493,89.572L90.646,81.158L91.8,84.45L92.953,96.329L94.107,79.584L95.26,88.071L96.414,80.378L97.567,77.198L98.721,80.315L99.875,91.366L101.028,82.411L102.182,77.852L103.335,77.97L104.489,80.925L105.642,86.675L106.796,80.322L107.949,81.356L109.103,77.337L110.256,78.16L111.41,74.228L112.563,79.5L113.717,65.511L114.87,81.816L116.024,80.563L117.177,73.658L118.331,72.736L119.484,65.329L120.638,62.177L121.791,95.344L122.945,75.884L124.099,75.362L125.252,66.076L126.406,72.858L127.559,74.873L128.713,75.352L129.866,72.154L131.019,80.965L132.173,62.653L133.327,75.416L134.48,84.282L135.634,69.085L136.787,65.373L137.941,72.605L139.094,77.121L140.248,54.09L141.401,68.902L142.555,68.584L143.708,69.516L144.862,76.436L146.016,77.399L147.169,71.505L148.323,74.2L149.476,67.443L150.63,53.149L151.783,56.853L152.937,75.882L154.09,62.624L155.244,68.621L156.397,65.466L157.551,64.867L158.704,77.077L159.858,71.292L161.011,74.172L162.165,71.245L163.318,79.218L164.472,70.883L165.625,63.513L166.779,66.5L167.932,72.261L169.086,52.624L170.24,74.07L171.393,64.845L172.547,65.299L173.7,69.381L174.854,72.207L176.007,74.947L177.161,73.002L178.314,65.027L179.468,64.079L180.621,52.75L181.775,59.634L182.928,63L184.082,63.185L185.235,51.993L186.389,54.139L187.542,58.521L188.696,50.974L189.849,60.901L191.003,66.191L192.157,74.287L193.31,62.35L194.464,63.792L195.617,54.824L196.771,75.624L197.924,51.74L199.077,57.179L200.231,64.92L201.385,60.539L202.538,57.538L203.692,54.284L204.845,56.498L205.999,63.883L207.152,60.761L208.306,64.703L209.459,52.529L210.613,60.198L211.766,61.19L212.92,52.26L214.074,56.058L215.227,65.431L216.381,57.954L217.534,62.023L218.688,46.336L219.841,71.813L220.994,65.214L222.148,43.566L223.302,61.318L224.455,63.028L225.609,57.536L226.762,49.92L227.916,42.777L229.069,70.54L230.223,60.166L231.376,53.139L232.53,59.152L233.683,51.313L234.837,53.31L235.99,61.266L237.144,60.058L238.298,50.576L239.451,57.409L240.605,51.857L241.758,66.102L242.911,62.192L244.065,66.207L245.219,50.963L246.372,61.46L247.526,66.247L248.679,63.45L249.833,60.134L250.985,52.788L252.14,54.49L253.292,75.15L254.448,48.905L255.6,60.331L256.755,60.703L257.908,62.301L259.06,47.728L260.215,53.239L261.368,43.163L262.523,59.301L263.675,57.8L264.828,54.466L265.983,48.44L267.135,55.492L268.29,55.853L269.443,59.712L270.595,51.234L271.75,46.251L272.902,49.397L274.058,50.776L275.21,42.289L276.365,52.902L277.518,46.402L278.67,59.913L279.825,32.808L280.978,54.534L282.133,50.777L283.285,37.832L284.438,38.99L285.592,49.713L286.745,58.026L287.9,46.253L289.053,64.41L290.205,63.075L291.36,61.204L292.513,49.203L293.668,50.436L294.82,42.791L295.973,48.63L297.128,62.412L298.28,50.816L299.435,53.87L300.588,48.996L301.743,42.722L302.895,46.003L304.048,40.288L305.203,53.178L306.355,51.626L307.51,50.64L308.663,39.166L309.815,42.007L310.97,34.67L312.123,40.84L313.277,32.723L314.43,35.217L315.583,62.588L316.738,44.095L317.89,45.055L319.045,63.096L320.198,50.811L321.35,52.533L322.505,41.369L323.658,38.33L324.813,59.781L325.965,45.736L327.12,46.601L328.273,46.138L329.425,34.512L330.58,50.598L331.733,51.774L332.888,58.729L334.04,58.227L335.193,44.348L336.348,47.79L337.5,39.206L338.655,47.981L339.808,61.258L340.96,63.231L342.115,64.62L343.268,35.318L344.423,50.887L345.575,58.818L346.73,31.816L347.883,30.064L349.035,63.077L350.19,52.954L351.342,59.193L352.498,54.211L353.65,38.394L354.803,35.667L355.958,35.53L357.11,35.708L358.265,42.489L359.418,51.567L360.57,37.538L361.725,47.023L362.878,48.044L364.033,51.145L365.185,39.184L366.337,55.978L367.493,54.482L368.645,36.859L369.8,40.529L370.953,48.56L372.108,49.891L373.26,41.126L374.413,41.729L375.568,48.055L376.72,43.704L377.875,41.706L379.027,53.686L380.18,42.859L381.335,46.009L382.488,43.102L383.643,58.586L384.795,35.21L385.948,67.018L387.103,41.642L388.255,51.873L389.41,52.606L390.563,46.637L391.717,52.054L392.87,64.188L394.023,33.84L395.178,36.362L396.33,48.238L397.485,58.145L398.638,51.396L399.79,33.48L400.945,30.093L402.098,25.473L403.253,34.91L404.405,48.922L405.558,38.975L406.712,53.407L407.865,44.603L409.02,33.754L410.173,31.101L411.325,45.479L412.48,41.853L413.633,51.743L414.788,38.719L415.94,52.247L417.095,47.585L418.248,43.518L419.4,25.433L420.555,39.884L421.708,44.164L422.863,25.967L424.015,53.098L425.168,60.638L426.323,43.834L427.475,41.863L428.63,39.235L429.783,23.737L430.935,47.509L432.09,36.653L433.243,46.862L434.397,20.73L435.55,39.107L436.705,48.869L437.858,52.033L439.01,42.162L440.165,41.628L441.318,41L442.473,41.538L443.625,56.326L444.777,35.551L445.933,38.576L447.085,45.071L448.24,33.756L449.393,50.664L450.545,43.756L451.7,49.975L452.853,46.979L454.008,47.28L455.16,36.291L456.313,52.07L457.467,43.76L458.62,38.626L459.775,43.61L460.928,40.896L462.083,34.805L463.235,31.462L464.388,29.352L465.543,37.314L466.695,52.948L467.85,43.176L469.003,41.639L470.155,39.705L471.31,40.175L472.462,26.592L473.618,49.085L474.77,40.972L475.923,49.889L477.078,24.772L478.23,42.703L479.385,45.322L480.538,35.295L481.693,29.109L482.845,39.052L483.998,44.725L485.152,27.228L486.305,39.642L487.46,11.811L488.613,35.086L489.765,47.275L490.92,49.055L492.073,37.737L493.228,27.939L494.38,34.325L495.533,47.6L496.688,30.405L497.84,46.613L498.995,49.885L500.147,49.648L501.3,39.989L502.455,40.308L503.608,37.527L504.763,55.204L505.915,21.548L507.07,40.683L508.223,41.143L509.375,35.781L510.53,42.615L511.683,38.469L512.837,46.344L513.99,52.079L515.143,36.308L516.298,48.081L517.45,39.81L518.605,49.822L519.758,37.701L520.91,32.601L522.065,49.469L523.217,33.688L524.372,42.292L525.525,39.484L526.678,39.979L527.833,45.384L528.985,54.713L530.14,45.146L531.293,28.974L532.448,41.876L533.6,42.778L534.753,43.197L535.908,50.277L537.06,37.601L538.215,29.959L539.367,31.399L540.52,45.93L541.675,29.087L542.828,59.463L543.983,58.886L545.135,31.952L546.288,26.366L547.443,20.515L548.595,31.101L549.75,56.401L550.903,55.493L552.058,49.537L553.21,49.093L554.363,43.84L555.518,48.719L556.67,31.738L557.825,29.938L558.978,44.462L560.13,39.093L561.285,44.81L562.438,32.856L563.593,39.812L564.745,31.332L565.898,48.311L567.053,31.452L568.205,23.478L569.36,38.126L570.513,35.454L571.665,48.271L572.82,48.438L573.973,42.382L575.128,25.684L576.28,33.948L577.435,48.198L578.588,43.056L579.74,33.707L580.895,33.344L582.048,30.456L583.203,49.605L584.355,23.111L585.508,38.352L586.663,50.233L587.815,27.426L588.97,20.97L590.122,34.342L591.275,28.831L592.43,39.591L593.583,29.467L594.738,27.107L595.89,35.581L597.045,38.39L598.198,33.042L599.35,44.505L600.505,48.814L601.658,43.382L602.813,30.22L603.965,39.536L605.117,33.719L606.273,16.004L607.425,18.371L608.58,40.071L609.733,36.77L610.885,54.194L612.04,33.556L613.193,36.569L614.348,39.794L615.5,42.749L616.653,20.699L617.808,36.029L618.96,22.736L620.115,44.239L621.268,36.312L622.423,34.661L623.575,40.591L624.728,32.519L625.883,42.779L627.035,24.181" style="fill:none;fill-rule:nonzero;stroke:rgb(33,53,165);stroke-width:1.5px;"/>
    <path d="M51.426,197.007L52.58,176.798L53.733,169.167L54.887,164.208L56.041,160.522L57.194,157.605L58.347,155.142L59.501,153.071L60.655,151.223L61.808,149.592L62.962,148.177L64.115,146.827L65.269,145.602L66.422,144.491L67.576,143.431L68.729,142.478L69.883,141.557L71.036,140.705L72.19,139.877L73.343,139.101L74.497,138.42L75.65,137.691L76.804,137.03L77.958,136.408L79.111,135.797L80.265,135.206L81.418,134.636L82.572,134.121L83.725,133.6L84.879,133.05L86.032,132.609L87.186,132.138L88.339,131.673L89.493,131.212L90.646,130.832L91.8,130.385L92.953,129.961L94.107,129.592L95.26,129.205L96.414,128.781L97.567,128.5L98.721,128.115L99.875,127.766L101.028,127.417L102.182,127.086L103.335,126.772L104.489,126.466L105.642,126.135L106.796,125.819L107.949,125.522L109.103,125.281L110.256,124.935L111.41,124.707L112.563,124.397L113.717,124.128L114.87,123.866L116.024,123.62L117.177,123.365L118.331,123.094L119.484,122.829L120.638,122.635L121.791,122.386L122.945,122.114L124.099,121.885L125.252,121.688L126.406,121.461L127.559,121.237L128.713,121.011L129.866,120.781L131.019,120.607L132.173,120.412L133.327,120.168L134.48,119.959L135.634,119.785L136.787,119.59L137.941,119.376L139.094,119.206L140.248,118.988L141.401,118.808L142.555,118.596L143.708,118.475L144.862,118.261L146.016,118.098L147.169,117.913L148.323,117.731L149.476,117.596L150.63,117.395L151.783,117.231L152.937,117.061L154.09,116.889L155.244,116.774L156.397,116.543L157.551,116.443L158.704,116.272L159.858,116.091L161.011,115.966L162.165,115.812L163.318,115.664L164.472,115.47L165.625,115.329L166.779,115.254L167.932,115.079L169.086,114.926L170.24,114.759L171.393,114.669L172.547,114.497L173.7,114.383L174.854,114.218L176.007,114.083L177.161,113.975L178.314,113.843L179.468,113.674L180.621,113.598L181.775,113.416L182.928,113.33L184.082,113.169L185.235,113.061L186.389,112.926L187.542,112.804L188.696,112.651L189.849,112.605L191.003,112.472L192.157,112.299L193.31,112.208L194.464,112.082L195.617,111.998L196.771,111.817L197.924,111.748L199.077,111.66L200.231,111.473L201.385,111.421L202.538,111.308L203.692,111.144L204.845,111.118L205.999,110.941L207.152,110.872L208.306,110.742L209.459,110.627L210.613,110.541L211.766,110.446L212.92,110.349L214.074,110.217L215.227,110.11L216.381,110.034L217.534,109.932L218.688,109.805L219.841,109.689L220.994,109.635L222.148,109.509L223.302,109.444L224.455,109.316L225.609,109.24L226.762,109.136L227.916,109.04L229.069,108.905L230.223,108.848L231.376,108.758L232.53,108.685L233.683,108.573L234.837,108.426L235.99,108.423L237.144,108.296L238.298,108.241L239.451,108.066L240.605,108.045L241.758,107.939L242.911,107.846L244.065,107.763L245.219,107.678L246.372,107.576L247.526,107.537L248.679,107.415L249.833,107.327L250.985,107.287L252.14,107.155L253.292,107.084L254.448,106.98L255.6,106.922L256.755,106.854L257.908,106.746L259.06,106.683L260.215,106.626L261.368,106.489L262.523,106.43L263.675,106.374L264.828,106.275L265.983,106.171L267.135,106.168L268.29,105.989L269.443,105.955L270.595,105.936L271.75,105.779L272.902,105.754L274.058,105.667L275.21,105.556L276.365,105.542L277.518,105.412L278.67,105.368L279.825,105.261L280.978,105.184L282.133,105.208L283.285,105.075L284.438,105.013L285.592,104.909L286.745,104.853L287.9,104.785L289.053,104.673L290.205,104.65L291.36,104.605L292.513,104.463L293.668,104.435L294.82,104.396L295.973,104.3L297.128,104.257L298.28,104.136L299.435,104.088L300.588,103.988L301.743,103.988L302.895,103.874L304.048,103.824L305.203,103.786L306.355,103.71L307.51,103.61L308.663,103.543L309.815,103.541L310.97,103.395L312.123,103.357L313.277,103.315L314.43,103.22L315.583,103.206L316.738,103.082L317.89,103.018L319.045,102.985L320.198,102.94L321.35,102.836L322.505,102.801L323.658,102.741L324.813,102.692L325.965,102.588L327.12,102.534L328.273,102.541L329.425,102.408L330.58,102.355L331.733,102.327L332.888,102.247L334.04,102.199L335.193,102.105L336.348,102.116L337.5,102.013L338.655,101.882L339.808,101.944L340.96,101.863L342.115,101.759L343.268,101.718L344.423,101.676L345.575,101.604L346.73,101.555L347.883,101.507L349.035,101.426L350.19,101.334L351.342,101.388L352.498,101.255L353.65,101.214L354.803,101.157L355.958,101.092L357.11,101.022L358.265,101.019L359.418,100.96L360.57,100.873L361.725,100.825L362.878,100.787L364.033,100.738L365.185,100.684L366.337,100.568L367.493,100.604L368.645,100.463L369.8,100.459L370.953,100.428L372.108,100.321L373.26,100.287L374.413,100.251L375.568,100.226L376.72,100.134L377.875,100.092L379.027,100.048L380.18,99.969L381.335,99.954L382.488,99.9L383.643,99.82L384.795,99.848L385.948,99.715L387.103,99.671L388.255,99.661L389.41,99.546L390.563,99.56L391.717,99.504L392.87,99.396L394.023,99.356L395.178,99.336L396.33,99.322L397.485,99.246L398.638,99.219L399.79,99.116L400.945,99.134L402.098,99.034L403.253,99.013L404.405,98.908L405.558,98.971L406.712,98.848L407.865,98.783L409.02,98.813L410.173,98.693L411.325,98.646L412.48,98.654L413.633,98.579L414.788,98.5L415.94,98.505L417.095,98.445L418.248,98.409L419.4,98.298L420.555,98.335L421.708,98.276L422.863,98.241L424.015,98.142L425.168,98.132L426.323,98.104L427.475,97.975L428.63,98.004L429.783,97.98L430.935,97.884L432.09,97.851L433.243,97.803L434.397,97.777L435.55,97.694L436.705,97.715L437.858,97.633L439.01,97.544L440.165,97.586L441.318,97.534L442.473,97.43L443.625,97.47L444.777,97.36L445.933,97.291L447.085,97.332L448.24,97.251L449.393,97.212L450.545,97.175L451.7,97.112L452.853,97.076L454.008,97.055L455.16,96.946L456.313,96.995L457.467,96.931L458.62,96.883L459.775,96.842L460.928,96.772L462.083,96.757L463.235,96.685L464.388,96.692L465.543,96.591L466.695,96.581L467.85,96.582L469.003,96.446L470.155,96.541L471.31,96.396L472.462,96.411L473.618,96.376L474.77,96.299L475.923,96.194L477.078,96.269L478.23,96.198L479.385,96.133L480.538,96.125L481.693,96.077L482.845,96.027L483.998,96.049L485.152,95.906L486.305,95.916L487.46,95.865L488.613,95.832L489.765,95.835L490.92,95.78L492.073,95.692L493.228,95.681L494.38,95.719L495.533,95.58L496.688,95.575L497.84,95.518L498.995,95.51L500.147,95.424L501.3,95.412L502.455,95.452L503.608,95.301L504.763,95.346L505.915,95.278L507.07,95.256L508.223,95.147L509.375,95.196L510.53,95.063L511.683,95.097L512.837,95.118L513.99,94.996L515.143,94.995L516.298,94.944L517.45,94.909L518.605,94.876L519.758,94.847L520.91,94.791L522.065,94.757L523.217,94.749L524.372,94.653L525.525,94.713L526.678,94.625L527.833,94.531L528.985,94.585L530.14,94.523L531.293,94.504L532.448,94.455L533.6,94.388L534.753,94.355L535.908,94.394L537.06,94.295L538.215,94.287L539.367,94.237L540.52,94.175L541.675,94.205L542.828,94.117L543.983,94.141L545.135,94.036L546.288,94.026L547.443,94.007L548.595,93.979L549.75,93.876L550.903,93.946L552.058,93.886L553.21,93.837L554.363,93.761L555.518,93.773L556.67,93.725L557.825,93.727L558.978,93.658L560.13,93.636L561.285,93.584L562.438,93.605L563.593,93.522L564.745,93.509L565.898,93.426L567.053,93.464L568.205,93.418L569.36,93.413L570.513,93.305L571.665,93.32L572.82,93.291L573.973,93.2L575.128,93.276L576.28,93.139L577.435,93.146L578.588,93.111L579.74,93.097L580.895,92.996L582.048,93.062L583.203,92.958L584.355,92.954L585.508,92.905L586.663,92.926L587.815,92.842L588.97,92.856L590.122,92.793L591.275,92.715L592.43,92.779L593.583,92.681L594.738,92.702L595.89,92.639L597.045,92.608L598.198,92.579L599.35,92.615L600.505,92.488L601.658,92.46L602.813,92.521L603.965,92.345L605.117,92.472L606.273,92.378L607.425,92.262L608.58,92.333L609.733,92.311L610.885,92.228L612.04,92.215L613.193,92.201L614.348,92.181L615.5,92.095L616.653,92.115L617.808,92.075L618.96,92.046L620.115,91.982L621.268,91.986L622.423,91.993L623.575,91.908L624.728,91.909L625.883,91.851L627.035,91.736" style="fill:none;fill-rule:nonzero;stroke:rgb(127,127,127);stroke-width:1.5px;"/>
    <g transform="matrix(1,0,0,1,-191.89,-176.928)">
        <text x="334.349px" y="269.976px" style="font-family:'ArialMT', 'Arial', sans-serif;font-size:15px;">one prime neighbor</text>
    </g>
</svg>
